/vscmnt/brussel_pixiu_data/_data_brussel/112/vsc11236/PredSimResults/SUBJ09mtu3D/weighted-LRposFixed/trackIG/worker_05.mot
version=1
nRows=4
nColumns=50
inDegrees=yes
endheader
                time	         pelvis_tilt	         pelvis_list	     pelvis_rotation	           pelvis_tx	           pelvis_ty	           pelvis_tz	       hip_flexion_r	     hip_adduction_r	      hip_rotation_r	        knee_angle_r	       ankle_angle_r	         mtp_angle_r	       hip_flexion_l	     hip_adduction_l	      hip_rotation_l	        knee_angle_l	       ankle_angle_l	         mtp_angle_l	    lumbar_extension	      lumbar_bending	     lumbar_rotation	 ercspn_r/activation	 intobl_r/activation	 extobl_r/activation	    abd_r/activation	    add_r/activation	hamstrings_r/activation	bifemsh_r/activation	glut_max_r/activation	iliopsoas_r/activation	rect_fem_r/activation	  vasti_r/activation	gastroc_r/activation	 soleus_r/activation	tib_ant_r/activation	 ercspn_l/activation	 intobl_l/activation	 extobl_l/activation	    abd_l/activation	    add_l/activation	hamstrings_l/activation	bifemsh_l/activation	glut_max_l/activation	iliopsoas_l/activation	rect_fem_l/activation	  vasti_l/activation	gastroc_l/activation	 soleus_l/activation	tib_ant_l/activation	
          0.00000000	         -7.96500748	         -4.75266893	          8.20334467	          0.00000000	          0.98284049	         -0.01454592	         31.22299831	          1.25289893	         -5.42070296	         -2.13749440	          6.44052794	          0.21624999	         -9.46661304	         -4.82894485	          6.77756461	         -6.45328577	         11.33191437	         26.55087872	          0.06301847	          2.85341828	         -3.38999163	          0.08572108	          0.13087228	          0.03320574	          0.01221472	          0.08365318	          0.11044175	          0.19740962	          0.01000011	          0.10591284	          0.01000064	          0.01000017	          0.01143949	          0.01000008	          0.26663873	          0.03456760	          0.01000014	          0.01000016	          0.06060749	          0.02019643	          0.02489151	          0.14210775	          0.06120765	          0.49505104	          0.01000122	          0.01000094	          0.35567893	          0.29649803	          0.01491992	
          0.01328805	         -8.07577590	         -4.65797376	          8.20641278	          0.01794124	          0.98047374	         -0.01412552	         31.44143834	          1.34096438	         -5.28052723	         -3.96819706	          5.99940203	          0.21461170	         -9.79955320	         -4.76801239	          6.36742177	         -7.61049647	         10.76354427	         28.46244142	          0.37289789	          3.14903980	         -3.47603732	          0.07017900	          0.10714383	          0.02718514	          0.01000013	          0.13730921	          0.09594793	          0.16161751	          0.07493610	          0.08670952	          0.01000115	          0.01000022	          0.02263807	          0.01492805	          0.27860081	          0.07996898	          0.01000013	          0.01000035	          0.04961861	          0.05356783	          0.02037873	          0.11634200	          0.05010997	          0.51035337	          0.01000184	          0.01000040	          0.33102065	          0.28013324	          0.01221476	
          0.02657610	         -8.16539212	         -4.55384718	          8.15746857	          0.03635188	          0.97838344	         -0.01364359	         31.44118623	          1.40904150	         -5.10730532	         -5.66065140	          5.51647141	          0.20000368	         -9.99649420	         -4.68058178	          5.93290160	         -9.09971972	         10.04444674	         30.45808317	          0.70798064	          3.44617471	         -3.53238104	          0.06159939	          0.08771748	          0.02225615	          0.06434683	          0.12482178	          0.08802123	          0.13231723	          0.11663279	          0.07098800	          0.01000025	          0.01000007	          0.01853355	          0.01222143	          0.32973689	          0.07800512	          0.01000010	          0.01000031	          0.04062215	          0.04859790	          0.02357490	          0.09524789	          0.04102443	          0.49899222	          0.01000147	          0.01000199	          0.30300603	          0.26034911	          0.01000008	
          0.03986415	         -8.23700151	         -4.43714683	          8.05794299	          0.05490314	          0.97683722	         -0.01306811	         31.24652951	          1.48229304	         -4.96974383	         -7.02204231	          4.88296802	          0.17515416	         -9.95234223	         -4.55871377	          5.48739591	        -11.05003471	          9.10798959	         32.53791409	          1.03466050	          3.73799198	         -3.55477350	          0.07050560	          0.07181324	          0.01822085	          0.11889680	          0.13922334	          0.07708140	          0.10832673	          0.16481519	          0.05811699	          0.01000029	          0.01000009	          0.01517326	          0.01000558	          0.36267388	          0.10364169	          0.01000010	          0.01000029	          0.03325685	          0.05432283	          0.02153632	          0.07797843	          0.03358620	          0.47977749	          0.01000204	          0.01221456	          0.25372716	          0.21915514	          0.01000002	
